<svg width="64" height="64" viewBox="0 0 64 64" fill="none" xmlns="http://www.w3.org/2000/svg">
<g id="icon / ionicons / filled / attach">
<path id="Vector (Stroke)" fill-rule="evenodd" clip-rule="evenodd" d="M24.5084 8.62781C25.7897 8.09253 27.1645 7.81689 28.5531 7.81689C29.9417 7.81689 31.3165 8.09253 32.5978 8.62781C33.8791 9.1631 35.0414 9.94739 36.0173 10.9352C36.9932 11.9231 37.7634 13.0948 38.2831 14.3825C38.8013 15.6664 39.0602 17.0402 39.045 18.4246L39.0287 41.9977L39.0285 42.0128C38.9994 43.8525 38.2482 45.6071 36.9369 46.8979C35.6256 48.1886 33.8594 48.912 32.0194 48.912C30.1794 48.912 28.4132 48.1886 27.1019 46.8979C25.7906 45.6071 25.0393 43.8525 25.0102 42.0128L25.01 41.997V23.9999C25.01 22.8954 25.9054 21.9999 27.01 21.9999C28.1146 21.9999 29.01 22.8954 29.01 23.9999V41.9634C29.026 42.7483 29.3481 43.4962 29.9079 44.0472C30.4709 44.6014 31.2293 44.912 32.0194 44.912C32.8094 44.912 33.5678 44.6014 34.1309 44.0472C34.6908 43.496 35.0129 42.748 35.0288 41.9628L35.045 18.3996L35.0451 18.3882C35.0556 17.529 34.8953 16.6763 34.5738 15.8795C34.2522 15.0827 33.7757 14.3577 33.1718 13.7464C32.5679 13.1352 31.8487 12.6499 31.0559 12.3187C30.263 11.9874 29.4124 11.8169 28.5531 11.8169C27.6939 11.8169 26.8432 11.9874 26.0504 12.3187C25.2575 12.6499 24.5383 13.1352 23.9345 13.7464C23.3306 14.3577 22.8541 15.0827 22.5325 15.8795C22.2109 16.6763 22.0507 17.529 22.0611 18.3882L22.0612 18.4003V42.1544L22.061 42.1689C22.042 43.486 22.2849 44.7938 22.7758 46.0162C23.2667 47.2386 23.9956 48.3512 24.9203 49.2894C25.845 50.2276 26.947 50.9726 28.1622 51.4811C29.3773 51.9896 30.6815 52.2514 31.9987 52.2514C33.316 52.2514 34.6202 51.9896 35.8353 51.4811C37.0505 50.9726 38.1525 50.2276 39.0772 49.2894C40.0019 48.3512 40.7308 47.2386 41.2217 46.0162C41.7126 44.7938 41.9555 43.486 41.9365 42.1689L41.9362 42.1544V19.9674C41.9362 18.8629 42.8317 17.9674 43.9362 17.9674C45.0408 17.9674 45.9362 18.8629 45.9362 19.9674V42.126C45.9609 43.9682 45.6202 45.797 44.9336 47.5067C44.2452 49.2211 43.2228 50.7815 41.926 52.0973C40.6291 53.413 39.0837 54.4579 37.3794 55.171C35.6752 55.8842 33.8462 56.2514 31.9987 56.2514C30.1513 56.2514 28.3223 55.8842 26.6181 55.171C24.9138 54.4579 23.3684 53.413 22.0715 52.0973C20.7747 50.7815 19.7523 49.2211 19.0639 47.5067C18.3773 45.797 18.0366 43.9682 18.0612 42.126V18.4239C18.0461 17.0397 18.3051 15.6662 18.8232 14.3825C19.3429 13.0948 20.113 11.9231 21.0889 10.9352C22.0649 9.94739 23.2271 9.1631 24.5084 8.62781Z" fill="#059669"/>
</g>
</svg>
