<svg width="64" height="64" viewBox="0 0 64 64" fill="none" xmlns="http://www.w3.org/2000/svg">
<g id="icon / ionicons / filled / pulse">
<path id="Vector" d="M54 34.0001C52.7597 34.0018 51.5504 34.3872 50.5377 35.1033C49.5251 35.8194 48.7587 36.8313 48.3438 38.0001H43.4412L39.8975 27.3676C39.7624 26.9624 39.5011 26.6112 39.1519 26.3653C38.8028 26.1194 38.3841 25.9917 37.9571 26.0009C37.5301 26.0101 37.1173 26.1558 36.7791 26.4165C36.4409 26.6773 36.195 27.0395 36.0775 27.4501L30.5138 46.9201L23.9725 7.67006C23.8966 7.21689 23.6671 6.80365 23.3224 6.49984C22.9777 6.19603 22.5389 6.02017 22.0798 6.00184C21.6206 5.9835 21.1692 6.12381 20.8014 6.39916C20.4336 6.67452 20.1718 7.06813 20.06 7.51381L12.4388 38.0001H6C5.46957 38.0001 4.96086 38.2108 4.58579 38.5858C4.21071 38.9609 4 39.4696 4 40.0001C4 40.5305 4.21071 41.0392 4.58579 41.4143C4.96086 41.7893 5.46957 42.0001 6 42.0001H14C14.446 42 14.8792 41.8509 15.2307 41.5764C15.5822 41.3019 15.8318 40.9177 15.94 40.4851L21.6075 17.8138L28.0275 56.3288C28.1015 56.7773 28.326 57.1872 28.6641 57.491C29.0022 57.7947 29.4337 57.9743 29.8875 58.0001C29.925 58.0001 29.9625 58.0001 30.0012 58.0001C30.4355 57.9997 30.8578 57.858 31.2044 57.5964C31.551 57.3348 31.8031 56.9676 31.9225 56.5501L38.1475 34.7651L40.1025 40.6326C40.2353 41.0308 40.49 41.3772 40.8305 41.6226C41.1711 41.868 41.5802 42.0001 42 42.0001H48.3438C48.7104 43.0372 49.3552 43.9535 50.2075 44.6489C51.0598 45.3444 52.0868 45.7921 53.1764 45.9432C54.266 46.0943 55.3762 45.9429 56.3856 45.5057C57.395 45.0684 58.2647 44.3621 58.8998 43.4639C59.5348 42.5657 59.9107 41.5102 59.9864 40.4128C60.0621 39.3154 59.8346 38.2183 59.3288 37.2415C58.8231 36.2646 58.0585 35.4456 57.1187 34.8739C56.1789 34.3022 55.1 34 54 34.0001Z" fill="#0891B2"/>
</g>
</svg>
