<svg width="64" height="64" viewBox="0 0 64 64" fill="none" xmlns="http://www.w3.org/2000/svg">
<g id="icon / ionicons / filled / pie-chart">
<path id="Vector" d="M8.26249 44.625C7.87643 44.6252 7.49857 44.5136 7.17451 44.3038C6.85045 44.094 6.59405 43.7948 6.43624 43.4425C4.52683 39.1781 3.71492 34.5037 4.0745 29.8451C4.43409 25.1866 5.95373 20.6921 8.49495 16.7713C11.0362 12.8504 14.5182 9.62779 18.6237 7.39711C22.7292 5.16642 27.3276 3.99858 32 4C32.5304 4 33.0391 4.21071 33.4142 4.58579C33.7893 4.96086 34 5.46957 34 6V32C34.0001 32.3862 33.8883 32.7642 33.6783 33.0882C33.4682 33.4123 33.1688 33.6686 32.8162 33.8263L9.07874 44.445C8.82246 44.5621 8.54425 44.6234 8.26249 44.625V44.625Z" fill="#2563EB"/>
<path id="Vector_2" d="M39.1988 8.52239C39.0537 8.49298 38.904 8.49612 38.7604 8.53158C38.6167 8.56704 38.4827 8.63393 38.368 8.72744C38.2534 8.82095 38.1609 8.93874 38.0972 9.07231C38.0336 9.20589 38.0004 9.35193 38 9.49989V31.9999C37.999 33.1579 37.6634 34.2909 37.0336 35.2627C36.4038 36.2345 35.5066 37.0035 34.45 37.4774L12.8913 47.1249C12.7576 47.1845 12.6387 47.2728 12.5429 47.3834C12.4471 47.4941 12.3768 47.6244 12.3368 47.7651C12.2969 47.9059 12.2884 48.0538 12.3118 48.1982C12.3352 48.3427 12.3901 48.4802 12.4725 48.6011C14.1224 51.0277 16.1704 53.1581 18.53 54.9024C23.0006 58.2281 28.4281 60.0165 34 59.9999C48.3363 59.9999 60 48.3361 60 33.9999C60 21.4436 51.0525 10.9374 39.1988 8.52239Z" fill="#2563EB"/>
</g>
</svg>
